<?xml version="1.0" encoding="UTF-8"?>
<!DOCTYPE svg PUBLIC "-//W3C//DTD SVG 1.1//EN" "http://www.w3.org/Graphics/SVG/1.1/DTD/svg11.dtd">
<!-- Creator: CorelDRAW -->
<svg xmlns="http://www.w3.org/2000/svg" xml:space="preserve" width="135.466mm" height="94.2375mm" version="1.1" style="shape-rendering:geometricPrecision; text-rendering:geometricPrecision; image-rendering:optimizeQuality; fill-rule:evenodd; clip-rule:evenodd"
viewBox="0 0 2749.35 1912.59"
 xmlns:xlink="http://www.w3.org/1999/xlink"
 xmlns:xodm="http://www.corel.com/coreldraw/odm/2003">
 <defs>
  <style type="text/css">
   <![CDATA[
    .fil0 {fill:#FEFEFE;fill-rule:nonzero}
   ]]>
  </style>
 </defs>
 <g id="Camada_x0020_1">
  <metadata id="CorelCorpID_0Corel-Layer"/>
  <g id="_2049865141360">
   <g>
    <path class="fil0" d="M2629.81 836.76l-2510.28 0c-66.02,0 -119.53,53.52 -119.53,119.54 0,66.02 53.52,119.54 119.54,119.54l2510.27 -0c66.02,0 119.54,-53.52 119.54,-119.54 0,-66.02 -53.52,-119.53 -119.54,-119.53z"/>
    <path class="fil0" d="M119.53 239.07l2510.28 0c66.02,0 119.54,-53.52 119.54,-119.54 0,-66.02 -53.52,-119.54 -119.54,-119.54l-2510.28 0c-66.02,0 -119.53,53.52 -119.53,119.54 0,66.02 53.52,119.54 119.53,119.54z"/>
    <path class="fil0" d="M2629.81 1673.51l-2510.28 0c-66.02,0 -119.53,53.52 -119.53,119.54 0,66.02 53.52,119.54 119.53,119.54l2510.28 0c66.02,0 119.54,-53.52 119.54,-119.54 0,-66.02 -53.52,-119.54 -119.54,-119.54z"/>
   </g>
  </g>
 </g>
</svg>
